<?xml version="1.0" encoding="utf-8"?>
<!-- Generator: Adobe Illustrator 21.0.2, SVG Export Plug-In . SVG Version: 6.00 Build 0)  -->
<svg version="1.1" id="Livello_1" xmlns="http://www.w3.org/2000/svg" xmlns:xlink="http://www.w3.org/1999/xlink" x="0px" y="0px"
	 viewBox="0 0 276 192" enable-background="new 0 0 276 192" xml:space="preserve">
<g id="Livello_7">
</g>
<g id="Livello_6">
</g>
<g id="Livello_2">
	<g>
		<path fill="#263247" d="M112.8,95.9v-0.1c2.9-0.5,3.5-2.3,3.5-5.1c0-4.8-2.5-5.7-7-5.7H97.6v22.1h11.7c4.9,0,7.2-0.9,7.2-6.2
			C116.6,98,115.9,96.1,112.8,95.9z M103.6,89.9h4.9c1.6,0.1,1.8,0.6,1.8,1.8c0,1.7-0.4,2-2.5,2h-4.2V89.9z M108,102.1h-4.4V98h4.5
			c1.9,0,2.5,0.3,2.5,2C110.6,101.6,110,102.1,108,102.1z"/>
		<rect x="119.3" y="85" fill="#263247" width="6" height="22.1"/>
		<polygon fill="#263247" points="134.9,98 144.2,98 144.2,93.8 134.9,93.8 134.9,89.9 144.9,89.9 144.9,85 128.9,85 128.9,107.1 
			145.1,107.1 145.1,102.1 134.9,102.1 		"/>
		<path fill="#263247" d="M158.8,93.6l-2.4-0.2c-1.6-0.1-2.3-0.2-2.3-1.9c0-1.1,0.2-1.8,3.4-1.8c2.3,0,3.2,0,3.2,2.2V92h5.8v-1
			c0-6.2-4.4-6.2-9-6.2c-5.8,0-9.4,0.5-9.4,6.8c0,6.1,3,6.3,8.1,6.7l2.1,0.1c2.6,0.2,2.8,0.2,2.8,2c0,1.8-0.9,2-3.6,2
			c-2.9,0-3.6-0.2-3.6-2.5v-0.1H148v0.1c0,7.4,3.9,7.4,9.4,7.4c4.4,0,7-0.7,8.4-2.2c1.2-1.3,1.2-3.2,1.2-4.9V100
			C167,94.9,165.3,94,158.8,93.6z"/>
		<path fill="#263247" d="M179.8,93.6l-2.4-0.2c-1.6-0.1-2.3-0.2-2.3-1.9c0-1.1,0.2-1.8,3.4-1.8c2.3,0,3.2,0,3.2,2.2V92h5.8v-1
			c0-6.2-4.4-6.2-9-6.2c-5.8,0-9.4,0.5-9.4,6.8c0,6.1,3,6.3,8.1,6.7l2.1,0.1c2.6,0.2,2.8,0.2,2.8,2c0,1.8-0.9,2-3.6,2
			c-2.9,0-3.6-0.2-3.6-2.5v-0.1H169v0.1c0,7.4,3.9,7.4,9.4,7.4c4.4,0,7-0.7,8.4-2.2c1.2-1.3,1.2-3.2,1.2-4.9V100
			C188,94.9,186.3,94,179.8,93.6z"/>
		<polygon fill="#263247" points="196.8,102.1 196.8,98 206.1,98 206.1,93.8 196.8,93.8 196.8,89.9 206.8,89.9 206.8,85 190.8,85 
			190.8,107.1 207,107.1 207,102.1 		"/>
		<path fill="#263247" d="M88.3,84.8H80l-3.4,2.5v-2.5H69v5.6h3.3l-3.2,2.4l0,0v5.9h3.1l-3,2.2l0,0v6.3l3.5-2.5v2.4h8.3l3.5-2.5v2.5
			h7.5v-5.7h-3.1l3.1-2.3l0,0v-6h-3l3-2.2v-6.3l-3.5,2.5V84.8z M70,88.6v-2.8h3.7L70,88.6z M70,97.1v-3.7l10.1-7.6h4.9L70,97.1z
			 M90.9,103.5l0,2.8l-3.7,0L90.9,103.5z M90.9,94.9v3.7l-10.3,7.7h-4.9L90.9,94.9z M90.9,86.6v3.6l-20.8,15v-3.6L90.9,86.6z"/>
	</g>
</g>
<g id="Livello_5">
</g>
<g id="Livello_4">
</g>
<g id="Livello_3">
</g>
</svg>
