<?xml version="1.0" encoding="utf-8"?>
<!-- Generator: Adobe Illustrator 23.0.1, SVG Export Plug-In . SVG Version: 6.00 Build 0)  -->
<svg version="1.1" id="Warstwa_1" xmlns="http://www.w3.org/2000/svg" xmlns:xlink="http://www.w3.org/1999/xlink" x="0px" y="0px"
	 viewBox="0 0 276 192" style="enable-background:new 0 0 276 192;" xml:space="preserve">
<style type="text/css">
	.st0{fill:none;stroke:#263247;stroke-miterlimit:10;}
	.st1{fill:#1B273B;}
	.st2{fill:none;stroke:#1B273B;stroke-miterlimit:10;}
	.st3{fill:#FFFFFF;}
	.st4{fill:none;}
	.st5{fill:none;stroke:#263247;stroke-width:0.5;stroke-linejoin:round;stroke-miterlimit:10;}
	.st6{fill:#D28F27;}
	.st7{fill:#D38F27;}
	.st8{fill:#C3996B;}
	.st9{fill:#FEFDFD;}
	.st10{fill:#B4916B;}
	.st11{fill:#FCFBF9;}
	.st12{fill:#FEFEFE;}
	.st13{fill:#1B273B;stroke:#FFFFFF;stroke-width:0.5;stroke-linecap:round;stroke-linejoin:round;stroke-miterlimit:10;}
	.st14{fill:#1B273C;}
</style>
<g>
	<path class="st0" d="M53.58,74.25v33.69h85.65l1.47-10.63c0,0,6.88-0.03,8.49-0.03s2.68-0.28,3.22-0.5
		c0.9-0.36,1.41-1.08,1.41-1.08l-1.73,12.24H187l3.54-8.58l0.12,8.58h24.08l1.55-6.48l1.32,6.48h15.01l5.85-21.08h4.86l-5.97,21.08
		h13.08l6.44-21.19h7.2l3.74-12.49h-39.3l-1.86,7.35l-1.36-7.35H209.3L204,97.43l-0.29-23.17h-15.98l-10.1,23.61l4.04-23.61h-24.83
		l-0.28,2.06c0,0-0.74-2.06-3.1-2.06c-2.02,0-50.57,0-50.57,0l-1.63,20.57h-8.29l1.23-20.57H53.58"/>
	<path class="st1" d="M204.9,105.46l6.44-29h11.69l2.3,12.61h1.76l3.74-12.61h7.88l-8.02,29h-11.11l-2.19-11.54h-1.62l-2.95,11.54
		H204.9 M177.1,105.46l12.37-29h11.79l0.25,29h-8.34l-0.29-13.92h-1.83l-5.93,13.92H177.1z M154.91,105.46l4.1-29h8.74l-1.83,10.49
		h2.65l1.83-10.49h8.41l-5.12,29h-8.38l1.84-10.64h-2.63l-1.87,10.64H154.91z M128.79,105.46l3.59-29h19.16
		c4.35,0,4.44,3.88,4.26,5.25c-0.18,1.37-0.92,6.95-1.35,9.52c-0.59,3.62-4.64,3.62-4.64,3.62h-11.52l-1.32,10.61H128.79z
		 M139.65,84.32l-0.36,2.59h7.84l0.43-2.59H139.65z M112.2,97.34h14.96l-1,8.13h-23.09l2.28-29h24.39l-0.99,7.9h-15.53l-0.25,2.55
		h15.46l-0.96,7.88h-15.1L112.2,97.34z M81.47,105.46l1.7-29h8.45l-1.25,21.02h10.71l-0.64,7.98H81.47z M55.81,76.46h24.74
		l-0.47,7.97H64.19v2.59h15.73l-0.48,7.91H64.19v2.55h15.12l-0.49,7.98H55.81V76.46z M241.42,76.46h22.97l-2.36,7.72h-7.08
		l-6.51,21.29h-7.66l5.86-21.11h-7.42L241.42,76.46z"/>
	<rect x="9.95" y="74.14" class="st2" width="33.81" height="33.81"/>
	<path class="st1" d="M23.39,83.34c0-0.42,0.34-0.76,0.76-0.76c0.42,0,0.76,0.34,0.76,0.76c0,0.42-0.34,0.76-0.76,0.76
		C23.73,84.1,23.39,83.76,23.39,83.34 M28.72,83.34c0-0.42,0.34-0.76,0.76-0.76c0.42,0,0.76,0.34,0.76,0.76
		c0,0.42-0.34,0.76-0.76,0.76C29.06,84.1,28.72,83.76,28.72,83.34z M14.73,77.21c1.26-0.05,1.93,0.37,2.21,0.76
		c0.29,0.4,0.54,0.43,0.9-0.04c0.36-0.47,1.11-1.5,4.13-2.06c2.67-0.49,5.77-0.49,8.64-0.24c2.94,0.26,4.56,1.1,5.07,2.02
		c0.48,0.87,0.72,0.83,0.94,0.45c0.17-0.29,0.86-1.07,2.48-0.96c2.22,0.16,2.76,2,2.76,3.29c0,1.04-0.04,19.42,0,20.1
		c0.04,0.68-1.08,1.31-2.47,0.54c-1.21-0.67-1.27-1.48-1.45-2.63c-0.18-1.15-0.97-7.88-1.12-8.88c-0.14-1.01-0.11-1.78-0.54-1.82
		c-0.33-0.03-0.33,0.19-0.34,0.78c-0.05,3.05-0.79,3.74-2,4.09c-0.97,0.28-2.03-0.05-2.4-0.48c-0.21-0.24-0.38-0.13-0.71,0.77
		c-0.32,0.9-1.8,2.63-2.44,3.25c-0.77,0.75-2.09,1.65-2.15,2.93c-0.08,1.91,1.69,2.57,3.32,1.57c1.91-1.17,1.41-3.37,1.22-3.64
		c-0.18-0.26-0.4-1.05,0.79-0.87c0.62,0.09,1.83,1.19,2.39,2.62c0.51,1.29,0.28,3.08-0.57,4.52c-1.75,2.96-5.23,3.6-7.93,3.18
		c-3.31-0.51-6.07-3.23-6.5-6.94c-0.43-3.7,1.82-6.06,2.01-6.45c0.13-0.28-0.01-0.53-0.44-0.49c-0.32,0.04-1.19,0.05-1.97-0.73
		c-0.98-0.97-0.87-3.37-0.87-3.55c0-0.18,0.04-0.46-0.33-0.47c-0.42-0.01-0.39,0.47-0.43,0.83c-0.04,0.36-1.08,9.71-1.19,10.39
		c-0.11,0.68-0.18,1.19-0.76,1.65c-0.57,0.47-1.65,0.83-2.23,0.65c-0.57-0.18-0.85-0.32-0.88-1.19C11.85,99.33,11.8,82,11.91,79.85
		C11.98,78.44,13.24,77.27,14.73,77.21z M27.02,76.65c-3.38,0-4.9,0.3-6.57,0.91c-2.11,0.77-2.5,2.73-2.39,3.81
		c0.11,1.08,0.9,6.46,1,7.72c0.11,1.26,0.35,2.23,1.57,2.31c1.12,0.07,1.47-1.15,1.37-1.73c-0.11-0.57-0.9-0.96-1.57-1.05
		c-0.49-0.07-0.47-0.9-0.25-1.04c0.22-0.14,0.8-0.36,1.89,0.11c0.36,0.15,1.01,0.84,1.17,1.4c0.3,1.01,0.14,1.85-0.07,2.61
		c-0.1,0.38-0.51,1.34-0.93,1.98c-0.38,0.58-0.84,1.28-1.28,2.09c-1.21,2.24-0.5,5.54,0.94,7.16s4,3.05,7.35,1.95
		c3.69-1.22,3.66-4.12,3.57-4.76c-0.1-0.71-0.24-1.2-0.45-1.27c-0.47-0.16-0.29,0.27-0.44,0.81s-0.61,1.43-1.57,2.1
		c-0.66,0.46-2.23,1.21-3.95,0.24c-2.08-1.17-1.82-3.97-0.65-5.08c0.97-0.92,2.34-2.27,3.15-3.39c0.61-0.83,1.4-2.33,1.37-2.67
		c-0.2-2.34,1.4-3.42,2.62-3.46c1.22-0.04,0.97,1.33,0.04,1.33c-0.61,0-1.27,0.68-1.2,1.33c0.07,0.65,0.45,1.39,1.38,1.41
		c1.06,0.02,1.33-0.83,1.44-1.62c0.11-0.79,0.72-6.71,0.93-8.79c0.22-2.09-1.67-3.41-2.31-3.66C32.54,77.14,30.4,76.65,27.02,76.65z
		 M16.73,79.76c-0.23-0.56-0.51-1.34-1.88-1.32c-1.38,0.02-1.67,1.2-1.69,1.73c-0.02,0.54-0.12,18.87-0.12,19.26
		s-0.02,0.84,0.58,0.64c0.66-0.23,0.72-0.75,0.81-1.32c0.08-0.58,1.18-9.41,1.26-10.51c0.06-0.84,0.83-1.53,1.34-2.27
		c0.35-0.51,0.31-1.05,0.21-1.87C17.12,83.28,16.87,80.11,16.73,79.76z M37.01,79.76c-0.14,0.35-0.39,3.52-0.49,4.35
		s-0.15,1.37,0.21,1.87c0.51,0.74,1.28,1.43,1.34,2.27c0.08,1.1,1.17,9.93,1.26,10.51c0.08,0.58,0.14,1.1,0.8,1.32
		c0.6,0.21,0.58-0.25,0.58-0.64s-0.1-18.73-0.12-19.26c-0.02-0.54-0.31-1.71-1.69-1.73C37.52,78.42,37.23,79.2,37.01,79.76z"/>
</g>
</svg>
