<?xml version="1.0" encoding="utf-8"?>
<!-- Generator: Adobe Illustrator 21.0.2, SVG Export Plug-In . SVG Version: 6.00 Build 0)  -->
<svg version="1.1" id="Livello_1" xmlns="http://www.w3.org/2000/svg" xmlns:xlink="http://www.w3.org/1999/xlink" x="0px" y="0px"
	 viewBox="0 0 480 480" style="enable-background:new 0 0 480 480;" xml:space="preserve">
<style type="text/css">
	.st0{fill:#263247;}
	.st1{fill-rule:evenodd;clip-rule:evenodd;fill:#263247;}
</style>
<g>
	<path class="st0" d="M195.4,78.2h-69.4v90.2h69.4V78.2z M180.9,136h-40.6v-14.4h40.6V136z M180.9,107.1h-40.6V92.7h40.6V107.1z"/>
	<polygon class="st0" points="149.8,259.2 171.5,259.2 185,227.4 209.8,227.4 209.8,212.3 175.5,201.4 175.5,187.3 195.4,187.3 
		195.4,172.8 125.9,172.8 125.9,187.3 145.8,187.3 145.8,201.4 111.5,212.3 111.5,227.4 136.3,227.4 	"/>
	<path class="st0" d="M388.4,303.2H231.7l15-32.1l-34.8-39.2h-24.4L176.8,257l34.5,28.3l-4.4,17.9h-92.4l-4.4-17.9l34.5-28.3
		l-10.7-25.2h-24.4L74.6,271l15,32.1H48.3v24.1l43.3,46.5v0h340v-23.8v-0.3L388.4,303.2z M199.4,256.4c-4,0-7.2-3.2-7.2-7.2
		c0-4,3.2-7.2,7.2-7.2c4,0,7.2,3.2,7.2,7.2C206.7,253.1,203.4,256.4,199.4,256.4z M121.9,241.9c4,0,7.2,3.2,7.2,7.2
		c0,4-3.2,7.2-7.2,7.2c-4,0-7.2-3.2-7.2-7.2C114.6,245.2,117.9,241.9,121.9,241.9z M92.9,346.9l-38-40.8H91h24.2h91l-10.1,40.8
		h-70.8h-15.2H92.9z M211.2,346.9l19.1-40.8h156.8l38,40.8H211.2z"/>
	<polygon class="st0" points="91.6,377.7 48.3,331.2 48.3,355.2 91.6,401.7 91.6,401.8 431.7,401.8 431.7,377.9 91.6,377.9 	"/>
</g>
</svg>
