<?xml version="1.0" encoding="utf-8"?>
<!-- Generator: Adobe Illustrator 21.0.2, SVG Export Plug-In . SVG Version: 6.00 Build 0)  -->
<svg version="1.1" id="Livello_1" xmlns="http://www.w3.org/2000/svg" xmlns:xlink="http://www.w3.org/1999/xlink" x="0px" y="0px"
	 viewBox="0 0 480 480" style="enable-background:new 0 0 480 480;" xml:space="preserve">
<style type="text/css">
	.st0{fill:#263247;}
	.st1{fill-rule:evenodd;clip-rule:evenodd;fill:#263247;}
</style>
<path class="st0" d="M257,118H100v14v0l0.1,0.1l6.8,7.2l-6.7,0.9L100,140v0.2v8.8l6.9,7.3l-6.7,0.9l0,0v0l-0.1,0V173l82.8,88
	c-9.8-4.6-26.4-7.7-45.3-7.7c-30.1,0-54.5,7.8-54.5,17.4v4.5c-20.1,4.7-33,11.9-33,19.9c0,0.2,0,0.3,0,0.5h0v2h0
	c0.1,2.2,1.2,4.4,3.2,6.7c-2.1,2.2-3.2,4.5-3.2,6.8c0,0.2,0,0.3,0,0.5h0v2h0c0.5,7.9,13.3,16.5,33,22.5v9.4h0.1
	c1.5,9.2,25.3,16.5,54.4,16.5s52.9-7.3,54.4-16.5h0.1v-9.4c19.7-6,32.5-14.6,33-22.5h0v-2h0c0-0.2,0-0.3,0-0.5
	c0-2.4-1.1-4.6-3.2-6.8c0.3-0.3,0.5-0.6,0.8-1L273,357h157v-55L257,118z M255.8,120.8l167.7,178.3H274.2L106.6,120.8H255.8z
	 M102.8,142.7l6.4-0.9L273,316v0l26,2.7v2.7l-26,2.7V324L102.8,143V142.7z M102.8,159.7l6.4-0.9L273,333l26,2.7v2.7l-25.9,2.7l0,0
	L102.8,160.1V159.7z M197.4,276.6c-1.7-0.5-3.5-0.9-5.4-1.4v-4.4L197.4,276.6z M137.5,264.8c10.9,0,19.7,2.7,19.7,6
	c0,3.3-8.8,6-19.7,6s-19.7-2.7-19.7-6C117.8,267.4,126.6,264.8,137.5,264.8z M69.8,282c3.9-1.4,8.4-2.7,13.2-3.9v10.9h0.1
	c1.5,9.2,25.3,16.5,54.4,16.5s52.9-7.3,54.4-16.5h0.1v-10.9c3.3,0.8,6.4,1.6,9.2,2.5c0.7,0.2,1.4,0.4,2,0.7c0.7,0.2,1.3,0.5,2,0.7
	c10.8,4,16.9,8.8,16.9,13.1c0,0.3,0,0.6-0.1,0.9c0,0.1,0,0.1,0,0.2c-0.1,0.3-0.1,0.6-0.3,0.9c0,0.1-0.1,0.1-0.1,0.2
	c-0.1,0.2-0.2,0.4-0.3,0.7c-0.1,0.2-0.2,0.3-0.3,0.5c-0.1,0.2-0.2,0.3-0.3,0.5c-0.1,0.2-0.2,0.3-0.4,0.5c-0.2,0.2-0.4,0.4-0.6,0.6
	c-0.1,0.1-0.1,0.1-0.2,0.2l0,0c-3.6,3.7-10.9,7.3-21,10.2c-16.3,4.7-38,7.4-61.1,7.4s-44.8-2.6-61.1-7.4
	c-14.8-4.3-23.6-10-23.6-15.3C52.8,290.8,59,286,69.8,282z M222.2,311.2c0,5.3-8.8,11-23.6,15.3c-16.3,4.7-38,7.4-61.1,7.4
	s-44.8-2.6-61.1-7.4c-14.8-4.3-23.6-10-23.6-15.3c0-1.1,0.4-2.1,1.1-3.3c0.5-0.6,1-1.1,1.4-1.5c12.2,11.1,44.4,21.2,82.2,21.2
	c37.9,0,70.2-10.2,82.3-21.3c0.4,0.3,0.7,0.7,1.1,1.3C221.7,308.9,222.2,310,222.2,311.2z"/>
</svg>
