<?xml version="1.0" encoding="utf-8"?>
<!-- Generator: Adobe Illustrator 21.0.2, SVG Export Plug-In . SVG Version: 6.00 Build 0)  -->
<svg version="1.1" id="Livello_1" xmlns="http://www.w3.org/2000/svg" xmlns:xlink="http://www.w3.org/1999/xlink" x="0px" y="0px"
	 viewBox="0 0 480 480" style="enable-background:new 0 0 480 480;" xml:space="preserve">
<style type="text/css">
	.st0{fill:#263247;}
	.st1{fill-rule:evenodd;clip-rule:evenodd;fill:#263247;}
</style>
<g>
	<path class="st0" d="M312.1,221.2v-8c11.8-0.7,20.8-3.2,21.4-6.3h0v-10.6c6.8-1.6,11.2-3.9,11.7-6.4h0.1v-75.3
		c0-5.3-17.6-9.7-39.4-9.7s-39.4,4.3-39.4,9.7v58.2L232,136H75v55l173,184h157v-55L312.1,221.2z M230.8,138.8l35.9,38.2v13h0.1
		c0.5,2.5,4.9,4.7,11.7,6.4V207h0c0.6,3.1,9.6,5.6,21.4,6.3V228l12.3,9.8v-12.4l86.3,91.8H249.2L81.6,138.8H230.8z"/>
	<polygon class="st0" points="312.1,244 299.9,234.1 299.9,244 312.1,253.8 	"/>
	<polygon class="st0" points="312.1,259.9 299.9,250.1 299.9,259.9 312.1,269.8 	"/>
	<polygon class="st0" points="312.1,280.9 312.1,275.9 299.9,266.1 299.9,280.9 306,287 	"/>
</g>
</svg>
