<?xml version="1.0" encoding="utf-8"?>
<!-- Generator: Adobe Illustrator 21.0.2, SVG Export Plug-In . SVG Version: 6.00 Build 0)  -->
<svg version="1.1" id="Livello_1" xmlns="http://www.w3.org/2000/svg" xmlns:xlink="http://www.w3.org/1999/xlink" x="0px" y="0px"
	 viewBox="0 0 480 480" style="enable-background:new 0 0 480 480;" xml:space="preserve">
<style type="text/css">
	.st0{fill:#263247;}
	.st1{fill-rule:evenodd;clip-rule:evenodd;fill:#263247;}
</style>
<g>
	<path class="st0" d="M360.6,299.9c4.1-2.6,5.9-7.6,6.9-12.1c1.3-6.3,1.1-12.9,0.9-19.3c-0.5-13.9-5.1-152.9-5.8-166.8
		c-0.3-6-0.7-12.3-3.8-17.6c-1.4-2.4-3.5-4.5-6.2-5.5c-3-1-6.3-0.7-9.4-0.6c-13.8,0.2-138.4,0-145.3,0c-3,0-6.1-0.4-9,0.5
		c-2.8,0.8-4.8,3-6.3,5.4c-1.7,2.7-2.9,5.6-4.3,8.4c-1.5,3.1-3,6.2-4.5,9.4c-3,6.2-6,12.4-9,18.6c-6,12.5-12.1,25.1-18.1,37.6
		c-0.8,1.7-1.6,3.4-2.4,5.1H75v55l173,184h157v-55L360.6,299.9z M81.6,165.9h61.4c-1.8,3.7-3.5,7.3-5.3,11
		c-2.9,6.1-6.2,12.2-8.7,18.5c-2.2,5.5-3.3,11.3-3.5,17.2L81.6,165.9z M207.9,286.2c-0.6,3.4-1.7,7.2-4.1,9.8
		c-0.1,0.1-0.2,0.2-0.3,0.3c-0.3,0.3-0.6,0.6-0.9,0.8c-0.3,0.2-0.6,0.4-0.9,0.6c-0.2,0.1-0.4,0.2-0.5,0.3c-0.2,0.1-0.3,0.1-0.5,0.2
		c-0.2,0.1-0.3,0.1-0.5,0.2c-0.2,0.1-0.4,0.1-0.6,0.2c-0.1,0-0.3,0.1-0.4,0.1c-0.4,0.1-0.7,0.1-1.1,0.1c-1.3,0-2.5-0.3-3.7-1
		c-2-1.1-3.4-3-4.9-4.7c-1.1-1.2-48.4-51.7-52.9-56.4c-2.1-2.3-4.4-4.4-5.7-7.3c-0.3-0.6-0.5-1.3-0.7-2c-0.1-0.2-0.1-0.3-0.2-0.5
		c-0.2-0.6-0.4-1.3-0.5-1.9c0,0,0-0.1,0-0.1c-0.2-0.7-0.3-1.5-0.4-2.2c0-0.1,0-0.2,0-0.2c-0.1-0.7-0.2-1.5-0.3-2.2c0,0,0,0,0,0
		c-0.1-1.2-0.2-2.4-0.3-3.6c-0.2-4.8,0-9.8,1.2-14.5c0.8-3.2,2.1-6.1,3.5-9c0.9-2,6.4-13.3,13.4-27.7c0.3-0.7,0.7-1.4,1-2.2
		c14.3-29.6,34-70.6,34.9-72.4c2-4.2,4.1-9.8,9.7-9.8c8,0,10,10.6,10.5,16.6c0.2,2.1,1.3,32,2.4,66.1c0,0.8,0.1,1.5,0.1,2.3
		c1.6,45.2,3.3,96.8,3.5,101C208.7,273.3,209.1,279.8,207.9,286.2z M249.2,344.2l-40.1-42.7c2.8,0,5.5,0,8.3,0
		c13.9,0,131.6,0,135,0.1c1.8,0,3.7-0.1,5.5-0.6l40.6,43.2H249.2z"/>
	<ellipse class="st0" cx="198.1" cy="276.3" rx="5.1" ry="16.8"/>
	<ellipse class="st0" cx="139.1" cy="213.3" rx="5.1" ry="16.8"/>
	<ellipse class="st0" cx="192.1" cy="103.3" rx="5.1" ry="16.8"/>
</g>
</svg>
