<?xml version="1.0" encoding="utf-8"?>
<!-- Generator: Adobe Illustrator 21.0.2, SVG Export Plug-In . SVG Version: 6.00 Build 0)  -->
<svg version="1.1" id="Livello_1" xmlns="http://www.w3.org/2000/svg" xmlns:xlink="http://www.w3.org/1999/xlink" x="0px" y="0px"
	 viewBox="0 0 480 480" style="enable-background:new 0 0 480 480;" xml:space="preserve">
<style type="text/css">
	.st0{fill:#263247;}
	.st1{fill-rule:evenodd;clip-rule:evenodd;fill:#263247;}
</style>
<g>
	<path class="st0" d="M410.1,227.5l26.1,1.9l-34.7-31.2l25.4-6.3l-42.7-19l22.2-13.8l-46.4-4.8l16.9-20l-45.7,9.7l9.8-24.3
		L300.7,143l1.9-26.1l-31.2,34.7l-6.3-25.4l-19,42.7l-13.8-22.2l-4.8,46.4l-20-16.9l9.7,45.7l-24.3-9.8l23.4,40.4l-26.1-1.9
		l34.7,31.2l-25.4,6.3l42.7,19l-22.2,13.8l46.4,4.8l-16.9,20l45.7-9.7l-9.8,24.3l40.4-23.4l-1.9,26.1l31.2-34.7l6.3,25.4l19-42.7
		l13.8,22.2l4.8-46.4l20,16.9l-9.7-45.7l24.3,9.8L410.1,227.5z M329.2,241.1c-0.6,8.8-8.3,15.5-17.1,14.9
		c-8.8-0.6-15.5-8.3-14.9-17.1c0.6-8.8,8.3-15.5,17.1-14.9C323.2,224.6,329.8,232.3,329.2,241.1z"/>
	<path class="st0" d="M83.1,149c-21.7,0-39.4,4.3-39.4,9.7V234h0.1c0.5,2.5,4.9,4.7,11.7,6.4V251h0c0.6,3.1,9.6,5.6,21.4,6.3V272
		l12.3,9.8v-24.5c11.8-0.7,20.8-3.2,21.4-6.3h0v-10.6c6.8-1.6,11.2-3.9,11.7-6.4h0.1v-75.3C122.5,153.3,104.9,149,83.1,149z"/>
	<polygon class="st0" points="77,288 89.3,297.8 89.3,288 77,278.1 	"/>
	<polygon class="st0" points="77,303.9 89.3,313.8 89.3,303.9 77,294.1 	"/>
	<polygon class="st0" points="77,324.9 83.1,331 89.3,324.9 89.3,319.9 77,310.1 	"/>
	<path class="st0" d="M165.9,90.9l4.1,1.3l-4.1-8h-20.7v113v19.4v68.6v44.4v66.2h19.6l-0.7-1.4c-0.3-0.6-0.2-1.2,0.2-1.7
		c0.4-0.5,1.1-0.7,1.7-0.5l4.1,1.3l-5.9-11.7c-0.3-0.6-0.2-1.2,0.2-1.7c0.4-0.5,1.1-0.7,1.7-0.5l4.1,1.3l-5.9-11.7
		c-0.3-0.6-0.2-1.2,0.2-1.7c0.4-0.5,1.1-0.7,1.7-0.5l4.1,1.3l-5.9-11.7c-0.3-0.6-0.2-1.2,0.2-1.7c0.4-0.5,1.1-0.7,1.7-0.5l4.1,1.3
		l-5.9-11.7c-0.3-0.6-0.2-1.2,0.2-1.7c0.4-0.5,1.1-0.7,1.7-0.5l4.1,1.3l-5.9-11.7c-0.3-0.6-0.2-1.2,0.2-1.7c0.4-0.5,1.1-0.7,1.7-0.5
		l4.1,1.3l-0.6-1.2h0.1L164,319c-0.1-0.2-0.2-0.5-0.2-0.7c0-0.3,0.2-0.6,0.4-0.8c0.4-0.5,1.1-0.7,1.7-0.5l4.1,1.3l-0.1-0.2l0.1,0
		l-5.9-11.7c-0.1-0.2-0.2-0.5-0.2-0.7c0-0.3,0.2-0.6,0.4-0.8c0.4-0.5,1.1-0.7,1.7-0.5l4.1,1.3l-0.1-0.2l0.1,0l-5.9-11.7
		c-0.1-0.2-0.2-0.5-0.2-0.7c0-0.3,0.2-0.6,0.4-0.8c0.4-0.5,1.1-0.7,1.7-0.5l4.1,1.3l-0.1-0.2l0.1,0l-5.9-11.7
		c-0.3-0.6-0.2-1.2,0.2-1.7c0.4-0.5,1.1-0.7,1.7-0.5l4.1,1.3l-5.9-11.7c-0.3-0.6-0.2-1.2,0.2-1.7c0.4-0.5,1.1-0.7,1.7-0.5l4.1,1.3
		l-5.9-11.7c-0.3-0.6-0.2-1.2,0.2-1.7c0.4-0.5,1.1-0.7,1.7-0.5l4.1,1.3l-5.9-11.7c-0.3-0.6-0.2-1.2,0.2-1.7c0.4-0.5,1.1-0.7,1.7-0.5
		l4.1,1.3l-5.9-11.7c-0.3-0.6-0.2-1.2,0.2-1.7c0.4-0.5,1.1-0.7,1.7-0.5l4.1,1.3l-5.9-11.7c-0.3-0.6-0.2-1.2,0.2-1.7
		c0.4-0.5,1.1-0.7,1.7-0.5l4.1,1.3l-0.6-1.1h0L164,206c-0.1-0.3-0.2-0.5-0.2-0.8c0-0.3,0.2-0.6,0.4-0.8c0.4-0.5,1.1-0.7,1.7-0.5
		l4.1,1.3l-0.1-0.1l0.1,0l-5.9-11.7c-0.3-0.6-0.2-1.2,0.2-1.7c0.4-0.5,1.1-0.7,1.7-0.5l4.1,1.3l-5.9-11.7c-0.3-0.6-0.2-1.2,0.2-1.7
		c0.4-0.5,1.1-0.7,1.7-0.5l4.1,1.3l-5.9-11.7c-0.3-0.6-0.2-1.2,0.2-1.7c0.4-0.5,1.1-0.7,1.7-0.5l4.1,1.3l-5.9-11.7
		c-0.3-0.6-0.2-1.2,0.2-1.7c0.4-0.5,1.1-0.7,1.7-0.5l4.1,1.3l-5.9-11.7c-0.3-0.6-0.2-1.2,0.2-1.7c0.4-0.5,1.1-0.7,1.7-0.5l4.1,1.3
		l-5.9-11.7c-0.3-0.6-0.2-1.2,0.2-1.7c0.4-0.5,1.1-0.7,1.7-0.5l4.1,1.3l-5.9-11.7c-0.3-0.6-0.2-1.2,0.2-1.7c0.4-0.5,1.1-0.7,1.7-0.5
		l4.1,1.3l-5.9-11.7c-0.3-0.6-0.2-1.2,0.2-1.7c0.4-0.5,1.1-0.7,1.7-0.5l4.1,1.3L164,93.1c-0.3-0.6-0.2-1.2,0.2-1.7
		C164.6,90.9,165.3,90.7,165.9,90.9z"/>
</g>
</svg>
