<?xml version="1.0" encoding="utf-8"?>
<!-- Generator: Adobe Illustrator 21.0.2, SVG Export Plug-In . SVG Version: 6.00 Build 0)  -->
<svg version="1.1" id="Livello_1" xmlns="http://www.w3.org/2000/svg" xmlns:xlink="http://www.w3.org/1999/xlink" x="0px" y="0px"
	 viewBox="0 0 480 480" style="enable-background:new 0 0 480 480;" xml:space="preserve">
<style type="text/css">
	.st0{fill:#263247;}
	.st1{fill-rule:evenodd;clip-rule:evenodd;fill:#263247;}
</style>
<g>
	<path class="st0" d="M312.1,253.2v-8l-0.3-0.2c5-0.8,8.5-2.6,8.8-4.7h0v-8.6c3.6-1.3,6-3.1,6.2-5.1h0v-60.7c0-4.3-9.4-7.8-21-7.8
		c-2.1,0-4.1,0.1-6,0.3v-21.5c0-4.3-9.4-7.8-21-7.8c-2.1,0-4.1,0.1-6,0.3v-20.5c0-4.3-9.4-7.8-21-7.8c-2.1,0-4.1,0.1-6,0.3V80.8
		c0-4.3-9.4-7.8-21-7.8s-21,3.5-21,7.8v60.7h0c0.3,2,2.6,3.8,6.2,5.1v8.6h0c0.3,2.1,3.7,3.8,8.6,4.7v8.1H75v55l173,184h157v-55
		L312.1,253.2z M258,188.1l-0.1-0.1c0,0,0.1,0,0.1,0V188.1z M285,216.1l-0.1-0.1c0,0,0.1,0,0.1,0V216.1z M231,160.1l-0.1-0.1
		c0,0,0.1,0,0.1,0V160.1z M218.9,170.8v4.1l12.3,9.8v-13.6l6.1,6.5v5.5h0c0.3,2.1,3.7,3.8,8.6,4.7v15l12.3,9.8v-12.9l6.1,6.5v4.8h0
		c0.3,2.1,3.7,3.8,8.6,4.7v15l12.3,9.8v-12.1l6.1,6.5v5.1h0c0.3,2.1,3.7,3.8,8.6,4.7v15l12.3,9.8v-12.4l86.3,91.8H249.2L81.6,170.8
		H218.9z"/>
	<polygon class="st0" points="312.1,276 299.9,266.1 299.9,276 312.1,285.8 	"/>
	<polygon class="st0" points="312.1,291.9 299.9,282.1 299.9,291.9 312.1,301.8 	"/>
	<polygon class="st0" points="312.1,312.9 312.1,307.9 299.9,298.1 299.9,312.9 306,319 	"/>
	<polygon class="st0" points="285.1,247 272.9,237.1 272.9,247 285.1,256.8 	"/>
	<polygon class="st0" points="285.1,262.9 272.9,253.1 272.9,262.9 285.1,272.8 	"/>
	<polygon class="st0" points="285.1,283.9 285.1,278.9 272.9,269.1 272.9,283.9 279,290 	"/>
	<polygon class="st0" points="258.1,219 245.9,209.1 245.9,219 258.1,228.8 	"/>
	<polygon class="st0" points="258.1,234.9 245.9,225.1 245.9,234.9 258.1,244.8 	"/>
	<polygon class="st0" points="258.1,255.9 258.1,250.9 245.9,241.1 245.9,255.9 252,262 	"/>
	<polygon class="st0" points="218.9,191 231.1,200.8 231.1,191 218.9,181.1 	"/>
	<polygon class="st0" points="218.9,206.9 231.1,216.8 231.1,206.9 218.9,197.1 	"/>
	<polygon class="st0" points="218.9,227.9 225,234 231.1,227.9 231.1,222.9 218.9,213.1 	"/>
</g>
</svg>
