<?xml version="1.0" encoding="utf-8"?>
<!-- Generator: Adobe Illustrator 21.0.2, SVG Export Plug-In . SVG Version: 6.00 Build 0)  -->
<svg version="1.1" id="Livello_1" xmlns="http://www.w3.org/2000/svg" xmlns:xlink="http://www.w3.org/1999/xlink" x="0px" y="0px"
	 viewBox="0 0 480 480" style="enable-background:new 0 0 480 480;" xml:space="preserve">
<style type="text/css">
	.st0{fill:#263247;}
	.st1{fill-rule:evenodd;clip-rule:evenodd;fill:#263247;}
</style>
<g>
	<ellipse class="st0" cx="110" cy="144.8" rx="16.8" ry="5.1"/>
	<path class="st0" d="M243.5,102.9h-157v29c-13.8,2.6-23,7.3-23,12.8c0,0.3,0,0.5,0.1,0.8c0-0.3-0.1-0.5-0.1-0.8v115.7h0.1
		c1.3,7.8,21.6,14.1,46.4,14.1s45.2-6.2,46.4-14.1h0.1v-28.1l24,25.5c5.8,6.5,10.5,13.6,14,21.2c-3.2,6.9-7.6,13.3-13.1,19.1
		c-18.5,19.8-48.7,32.7-82.9,32.7v46.2c56.3,0,102-35.1,102-78.5c0-0.1,0-0.3,0-0.4h0v-19l59,62.8h157v-55L243.5,102.9z M86.5,134.8
		L86.5,134.8c0.8-0.1,1.5-0.3,2.3-0.4c0.1,0,0.2,0,0.4-0.1c0.8-0.1,1.6-0.3,2.4-0.4c0,0,0,0,0.1,0c0.9-0.1,1.7-0.2,2.7-0.3
		c0.1,0,0.2,0,0.3,0c0.8-0.1,1.5-0.2,2.3-0.2c0.2,0,0.4,0,0.6-0.1c0.8-0.1,1.7-0.1,2.6-0.2c0.1,0,0.1,0,0.2,0
		c0.9-0.1,1.9-0.1,2.8-0.2c0.2,0,0.5,0,0.7,0c0.7,0,1.5-0.1,2.2-0.1c0.3,0,0.6,0,0.8,0c1,0,2,0,3,0c1.5,0,2.9,0,4.4,0.1
		c0,0,0.1,0,0.1,0c1.4,0,2.8,0.1,4.2,0.2c21.6,1.3,35,7.4,35,11.7c0,2.8-5.7,6.4-15.6,8.9c-2.7,0.7-5.7,1.3-9,1.8
		c-0.1,0-0.2,0-0.3,0c-1,0.2-2.1,0.3-3.2,0.4c-0.1,0-0.2,0-0.2,0c-1.1,0.1-2.2,0.2-3.4,0.3c0,0,0,0-0.1,0c-1.1,0.1-2.3,0.2-3.5,0.2
		c-0.2,0-0.4,0-0.6,0c-1.1,0.1-2.3,0.1-3.5,0.1c-0.2,0-0.4,0-0.6,0c-1.2,0-2.5,0.1-3.8,0.1c-1,0-2,0-3,0c-0.3,0-0.6,0-0.8,0
		c-0.8,0-1.5,0-2.2-0.1c-0.2,0-0.5,0-0.7,0c-1,0-1.9-0.1-2.8-0.2c-0.1,0-0.1,0-0.2,0c-0.9-0.1-1.7-0.1-2.6-0.2c-0.2,0-0.4,0-0.6-0.1
		c-0.8-0.1-1.5-0.2-2.3-0.2c-0.1,0-0.2,0-0.4,0c-0.9-0.1-1.8-0.2-2.6-0.3c0,0-0.1,0-0.1,0c-0.8-0.1-1.6-0.2-2.4-0.4
		c-0.1,0-0.2,0-0.4-0.1c-0.8-0.1-1.6-0.3-2.3-0.4l0,0c-12.7-2.5-20.2-6.7-20.2-9.9S73.8,137.3,86.5,134.8z M198.6,258.1
		c0,0.4,0,0.9-0.1,1.3c0,0.4,0,0.7-0.1,1.1c0,0.6-0.1,1.2-0.2,1.7c0,0.2,0,0.4-0.1,0.6c-0.1,0.7-0.2,1.3-0.2,2c0,0.1,0,0.2,0,0.3
		c-0.1,0.7-0.2,1.5-0.3,2.2c0,0,0,0.1,0,0.1c-0.1,0.8-0.3,1.5-0.4,2.3c0,0,0,0,0,0c-0.3,1.5-0.7,3.1-1.1,4.6
		c-0.1,0.3-0.1,0.6-0.2,0.8c-0.7-1.3-1.4-2.7-2.2-4c-0.2-0.3-0.4-0.7-0.6-1c-0.3-0.5-0.6-0.9-0.8-1.4c-0.2-0.4-0.5-0.7-0.7-1.1
		c-0.3-0.4-0.6-0.9-0.8-1.3c-0.3-0.4-0.5-0.8-0.8-1.2c-0.3-0.4-0.6-0.8-0.8-1.2c-0.3-0.4-0.6-0.8-0.9-1.2c-0.3-0.4-0.6-0.8-0.8-1.1
		c-0.3-0.4-0.7-0.9-1-1.3c-0.3-0.3-0.5-0.7-0.8-1c-0.4-0.5-0.8-1-1.2-1.5c-0.2-0.3-0.4-0.5-0.7-0.8c-0.7-0.8-1.3-1.5-2-2.3
		l-25.1-26.7v-50.6l16.5,17.6l0,0.1l0.1,0.1c15.4,14.9,25.4,38.3,25.6,59.7l0,0.8C198.7,256.5,198.6,257.3,198.6,258.1z
		 M260.7,284.1L156.5,173.2v-28.5c0,0.3,0,0.5-0.1,0.8c0-0.3,0.1-0.5,0.1-0.8c0-7.6-17.7-13.8-40.6-14.7l-22.8-24.3h149.2
		l167.7,178.3H260.7z"/>
</g>
</svg>
