<?xml version="1.0" standalone="no"?>
<!DOCTYPE svg PUBLIC "-//W3C//DTD SVG 20010904//EN"
 "http://www.w3.org/TR/2001/REC-SVG-20010904/DTD/svg10.dtd">
<svg version="1.0" xmlns="http://www.w3.org/2000/svg"
 width="816.000000pt" height="176.000000pt" viewBox="0 0 816.000000 176.000000"
 preserveAspectRatio="xMidYMid meet">

<g transform="translate(0.000000,176.000000) scale(0.100000,-0.100000)"
fill="#000000" stroke="none">
<path d="M820 1744 c0 -6 -7 -17 -15 -24 -8 -7 -22 -37 -31 -66 l-15 -54 -40
51 c-54 68 -71 74 -139 51 -47 -16 -55 -23 -63 -53 -5 -19 -7 -58 -4 -86 6
-55 -1 -65 -24 -37 -18 22 -84 54 -110 54 -12 0 -42 -16 -65 -36 -42 -34 -44
-37 -38 -77 3 -23 17 -59 31 -81 l25 -39 -34 8 c-18 4 -61 9 -95 12 -49 4 -63
2 -63 -9 0 -7 -12 -31 -26 -52 -31 -45 -26 -59 41 -132 l41 -44 -32 0 c-18 0
-57 -9 -87 -20 -52 -20 -53 -21 -64 -72 l-12 -53 37 -33 c20 -18 55 -42 77
-51 35 -16 37 -19 20 -26 -40 -14 -61 -26 -99 -58 l-38 -33 12 -56 c15 -64 28
-73 127 -85 29 -3 53 -8 53 -12 0 -3 -10 -15 -23 -26 -13 -11 -36 -37 -52 -58
l-28 -38 29 -59 c26 -52 32 -59 59 -59 30 -1 78 9 124 24 l24 7 -21 -36 c-12
-21 -25 -60 -28 -89 -5 -51 -5 -52 30 -76 20 -13 36 -27 36 -32 0 -24 112 12
139 45 22 26 33 19 31 -21 -5 -108 -2 -121 33 -136 76 -33 83 -35 103 -25 21
12 64 55 88 90 11 16 16 18 19 7 16 -57 32 -98 49 -121 18 -25 25 -28 81 -28
l62 0 28 49 c15 27 27 60 27 72 0 13 4 30 9 38 7 11 10 9 15 -7 4 -11 29 -41
56 -66 l49 -46 52 20 c29 10 57 24 63 30 6 6 11 45 11 85 0 53 4 75 13 75 6 0
12 -4 12 -10 0 -11 96 -60 118 -60 8 0 35 16 59 36 41 34 43 38 37 72 -4 21
-15 54 -25 74 -21 41 -24 63 -9 53 14 -8 46 -15 105 -21 l50 -6 32 59 32 59
-45 57 c-24 31 -49 57 -54 57 -6 0 -10 4 -10 8 0 7 59 19 157 34 13 1 18 18
28 89 7 44 5 47 -26 70 -18 13 -53 33 -78 45 l-44 21 42 16 c23 10 54 29 69
42 15 14 30 25 35 25 6 0 3 49 -8 105 -3 15 -20 25 -63 38 -32 9 -71 17 -87
17 l-29 0 31 33 c16 17 42 48 56 67 l26 35 -30 44 c-16 24 -29 48 -29 53 0 14
-108 9 -145 -6 -19 -8 -35 -12 -35 -8 0 4 11 30 25 57 36 73 33 107 -10 136
-19 13 -35 27 -35 32 0 24 -123 -15 -151 -49 -21 -26 -28 -15 -22 39 3 28 1
68 -4 87 -8 29 -16 37 -59 52 -27 10 -58 16 -69 13 -11 -3 -40 -30 -65 -60
-32 -38 -46 -49 -48 -37 -1 9 -14 43 -29 74 l-26 56 -63 4 c-43 2 -64 -1 -64
-8z m85 -219 c0 -16 9 -21 40 -26 22 -4 61 -10 86 -14 42 -7 48 -5 54 14 3 11
10 21 14 21 16 0 33 -29 27 -47 -4 -14 4 -22 32 -35 20 -9 54 -27 74 -40 35
-22 37 -22 56 -5 17 16 20 16 32 1 11 -13 11 -19 1 -36 -11 -18 -10 -24 13
-47 14 -14 38 -41 52 -59 22 -27 31 -32 54 -27 20 4 29 2 34 -10 8 -21 0 -35
-20 -35 -18 0 -19 3 16 -75 17 -37 30 -73 30 -81 0 -10 9 -14 28 -12 21 2 28
-2 30 -19 3 -19 -1 -23 -22 -23 l-25 0 2 -87 c2 -78 5 -88 22 -92 45 -8 39
-51 -6 -51 -22 0 -29 -5 -29 -20 0 -11 -12 -44 -26 -75 l-26 -55 23 -19 c22
-18 23 -21 8 -36 -13 -13 -21 -15 -36 -6 -17 9 -26 2 -72 -55 -42 -54 -49 -68
-41 -84 8 -15 6 -21 -9 -30 -13 -7 -22 -7 -26 0 -9 14 -41 12 -53 -3 -6 -7
-33 -24 -61 -37 -43 -22 -49 -28 -44 -49 3 -14 0 -26 -8 -32 -22 -14 -29 -11
-38 14 l-9 24 -86 -21 c-66 -15 -86 -24 -86 -37 0 -18 -26 -33 -41 -23 -5 3
-9 13 -9 24 0 15 -15 21 -82 33 -80 15 -83 15 -98 -4 -21 -26 -54 -15 -48 16
4 18 -7 29 -66 64 -62 37 -73 40 -93 30 -18 -9 -26 -9 -38 1 -14 12 -14 15 1
31 15 17 13 22 -42 83 -41 46 -62 62 -70 55 -8 -7 -17 -4 -29 8 -17 16 -16 18
3 33 18 15 19 18 4 46 -8 16 -20 49 -27 74 -9 38 -15 45 -38 48 -33 4 -38 41
-7 49 18 5 20 14 20 90 0 76 -2 85 -20 90 -11 3 -20 14 -20 24 0 14 7 19 29
19 25 0 29 5 34 34 3 18 15 53 26 77 19 39 20 45 6 55 -22 16 -8 44 24 45 19
0 38 15 74 60 26 33 45 64 42 70 -10 16 16 40 36 34 11 -4 46 9 88 32 62 34
69 41 64 62 -3 14 0 26 8 32 22 14 29 11 39 -15 8 -22 12 -23 47 -14 21 5 59
12 86 15 42 5 47 8 47 30 0 20 4 24 23 21 14 -2 22 -10 22 -23z"/>
<path d="M5345 1586 c-223 -38 -382 -147 -485 -331 -46 -82 -90 -266 -90 -375
0 -63 28 -218 53 -292 62 -182 223 -335 412 -392 268 -80 534 -25 704 146 82
83 129 175 161 316 20 86 29 83 -206 80 l-207 -3 -28 -74 c-42 -109 -100 -151
-209 -151 -106 1 -185 74 -220 205 -29 105 -29 222 0 329 23 88 52 131 112
171 34 23 52 27 112 28 108 1 171 -39 206 -132 l22 -61 208 0 208 0 -5 43 c-7
64 -41 165 -78 232 -56 101 -183 204 -290 234 -139 39 -257 47 -380 27z"/>
<path d="M6810 1589 c-260 -53 -410 -162 -507 -364 -89 -187 -90 -494 -2 -686
53 -116 128 -201 247 -277 97 -61 246 -102 375 -102 125 0 273 38 364 94 70
42 176 160 215 238 37 74 67 201 55 232 -6 14 -34 16 -210 16 l-203 0 -19 -56
c-40 -117 -109 -174 -210 -174 -52 0 -112 24 -152 58 -34 30 -83 135 -95 204
-13 81 -3 238 18 286 49 111 71 139 132 168 49 23 147 23 195 1 47 -22 98 -83
112 -133 l11 -39 207 -3 207 -2 0 33 c0 52 -27 141 -65 218 -59 115 -188 227
-295 254 -14 3 -34 10 -45 15 -61 25 -250 36 -335 19z"/>
<path d="M2010 881 l0 -681 441 0 c488 0 512 2 612 63 81 48 125 91 165 160
36 62 36 63 36 182 1 98 -2 127 -18 160 -41 85 -75 122 -151 162 l-50 26 25
16 c34 22 78 69 106 113 21 33 24 50 24 132 0 154 -50 231 -194 302 l-80 39
-458 3 -458 3 0 -680z m753 326 c26 -17 28 -23 25 -74 -3 -48 -7 -59 -31 -77
-25 -18 -42 -20 -170 -21 l-142 0 -3 99 -3 98 149 -3 c122 -3 153 -7 175 -22z
m41 -466 c25 -24 43 -64 41 -91 -1 -8 -3 -23 -3 -32 -1 -9 -13 -30 -27 -46
-32 -38 -116 -54 -265 -50 l-105 3 -3 123 -3 124 170 -4 c162 -3 170 -4 195
-27z"/>
<path d="M3795 1518 c-9 -24 -21 -52 -26 -63 -4 -11 -15 -40 -23 -65 -8 -25
-20 -58 -26 -75 -7 -16 -16 -39 -20 -50 -4 -11 -26 -69 -49 -128 -22 -59 -41
-113 -41 -118 0 -6 -6 -25 -14 -42 -37 -83 -55 -128 -61 -158 -4 -19 -11 -38
-15 -44 -5 -5 -23 -53 -40 -105 -18 -52 -41 -113 -50 -135 -10 -22 -24 -58
-30 -80 -7 -22 -19 -56 -27 -75 -8 -19 -19 -44 -23 -55 -9 -21 -40 -116 -40
-122 0 -2 96 -3 213 -3 l213 0 23 68 c13 37 28 79 33 95 l11 27 211 -2 211 -3
29 -92 30 -93 222 0 221 0 -33 92 c-17 51 -48 137 -68 191 -79 214 -109 296
-143 387 -19 52 -42 115 -50 140 -8 25 -30 86 -48 135 -81 218 -105 284 -127
345 l-24 65 -210 3 -211 2 -18 -42z m254 -525 c17 -54 42 -138 57 -188 15 -49
29 -96 31 -102 4 -10 -23 -13 -116 -13 -77 0 -121 4 -121 10 0 12 37 130 81
261 16 47 29 96 29 107 0 40 9 23 39 -75z"/>
<path d="M7730 880 l0 -680 215 0 215 0 0 110 0 110 -134 0 -135 0 -3 -27 c-3
-24 -8 -28 -33 -28 -30 0 -30 0 -33 62 l-3 63 168 2 168 3 3 96 3 97 -36 21
c-20 11 -37 21 -38 21 -1 0 -3 -21 -3 -46 -1 -39 -7 -52 -37 -82 -32 -31 -42
-36 -85 -36 -85 0 -142 59 -142 149 0 84 50 142 129 152 49 6 67 -1 158 -60
24 -15 45 -27 48 -27 3 0 5 41 5 90 l0 90 -135 0 -135 0 0 -31 c0 -28 -2 -30
-32 -27 -33 3 -33 3 -36 65 l-3 63 168 2 168 3 3 48 3 47 -41 0 c-44 0 -80 14
-93 37 -6 10 -15 8 -41 -12 -47 -35 -86 -33 -130 9 -32 30 -36 39 -36 85 0 57
20 105 49 121 33 17 96 12 124 -10 16 -13 28 -16 32 -10 13 21 81 48 108 43
l27 -5 0 86 0 86 -215 0 -215 0 0 -680z"/>
<path d="M8083 1310 c-52 -21 -25 -109 33 -110 30 0 44 19 44 62 0 50 -28 68
-77 48z"/>
<path d="M7903 1302 c-24 -15 -26 -59 -4 -81 12 -12 27 -21 34 -21 20 0 57 39
57 60 0 38 -53 64 -87 42z"/>
<path d="M7913 778 c-41 -20 -40 -95 0 -120 35 -22 89 -8 105 25 35 72 -30
131 -105 95z"/>
</g>
</svg>
