<?xml version="1.0" encoding="utf-8"?>
<!-- Generator: Adobe Illustrator 21.0.2, SVG Export Plug-In . SVG Version: 6.00 Build 0)  -->
<svg version="1.1" id="Livello_1" xmlns="http://www.w3.org/2000/svg" xmlns:xlink="http://www.w3.org/1999/xlink" x="0px" y="0px"
	 viewBox="0 0 480 480" style="enable-background:new 0 0 480 480;" xml:space="preserve">
<style type="text/css">
	.st0{fill:#263247;}
	.st1{fill-rule:evenodd;clip-rule:evenodd;fill:#263247;}
</style>
<g>
	<path class="st0" d="M405,271.8L297.4,157.3l18.3-17.9h0.3L291.3,113h-11.6V67h0.1l-24.7-26.3h-69.5l0,47H75l0,0v26l15,16H75v26
		l173,184h157v-26l-15-16h15V271.8z M168.5,129.8l-13-13.9h27.8l13,13.9l2.7,2.8l3.7,3.9h-27.8l-3.7-3.9L168.5,129.8z M290.1,115.9
		l19.3,20.6h-27.8l-1.9,0v-20.6H290.1z M253.9,43.6l19.3,20.6h-62.3l-19.3-20.6H253.9z M188.5,48.4l17.9,19v20.3v2.8v41.2l-2.3-2
		l-15.6-16.6V90.6v-2.8V48.4z M81.6,90.6h104.1V113l-36.7,0l15.7,16.7l2.7,2.8l6.3,6.7h-0.2l71.1,69.8l30.3-29.8l2-2l18.5-18.2
		l103.1,109.7h-35.6H359H249.2L121,132.6l-2.7-2.8L81.6,90.6z M398.4,310.9H249.2L81.6,132.6h11.2L248,297.8h138.1L398.4,310.9z"/>
	<path class="st0" d="M283,342.6h-36.2l-22.5-23.9l-52,50.8l-20.8-22.2l52-50.8l-1.9-2.1l-54,52.8l24.7,26.3h0h12.4v40.6l23.5,25.1
		v0h70.4v-65.7h35.9L283,342.6z M205.3,432.1l-17.9-19v-39.5h17.9V432.1z"/>
</g>
</svg>
