<?xml version="1.0" encoding="utf-8"?>
<!-- Generator: Adobe Illustrator 21.0.2, SVG Export Plug-In . SVG Version: 6.00 Build 0)  -->
<svg version="1.1" id="Livello_1" xmlns="http://www.w3.org/2000/svg" xmlns:xlink="http://www.w3.org/1999/xlink" x="0px" y="0px"
	 viewBox="0 0 480 480" style="enable-background:new 0 0 480 480;" xml:space="preserve">
<style type="text/css">
	.st0{fill:#263247;}
	.st1{fill-rule:evenodd;clip-rule:evenodd;fill:#263247;}
</style>
<path class="st0" d="M402.2,226.7v-0.1l-8.8-9.2L320.7,140h-37.8v5.9h-10.4l-5.5-5.9h-37.8v5.9h-10.4l-5.5-5.9h-37.8v5.9h-10.4
	l-5.5-5.9h-37.8v5.9h-10.4l-5.5-5.9H67.7v5.9H57.3l-5.5-5.9H13.9v5.9v5.9v27.7v5.9L159.3,340h306.7v-5.9v-33.6v-5.9L402.2,226.7z
	 M319.6,142.4l61.8,65.7l10.2,10.9l4.9,5.2l2.2,2.4l3.4,3.6l58.4,62.1h-2.4h-3.3h-25.6l-7.4-7.8l-2.2-2.4l-17.5-18.6l-34.7-36.9
	l-2.2-2.4l-12.9-13.7l-2.2-2.4l-11.8-12.6L309,164.4l-2.2-2.4l-9.6-10.2l-3.3-3.5l-2.2-2.4l-3.3-3.5H319.6z M331.8,198l9.5,10.1
	h-10.4l-9.5-10.1H331.8z M343.6,210.4l12.9,13.7H346l-12.9-13.7H343.6z M395.8,266.1l15,16h-10.4l-15-16H395.8z M413.1,284.4
	l9.6,10.2h-10.4l-9.6-10.2H413.1z M278.1,198l9.5,10.1h-10.4l-9.5-10.1H278.1z M289.8,210.4l12.9,13.7h-10.4l-12.9-13.7H289.8z
	 M342.1,266.1l15,16h-10.4l-15-16H342.1z M359.3,284.4l9.6,10.2h-10.4l-9.6-10.2H359.3z M224.3,198l9.5,10.1h-10.4l-9.5-10.1H224.3z
	 M236,210.4l12.9,13.7h-10.4l-12.9-13.7H236z M288.3,266.1l15,16h-10.4l-15-16H288.3z M305.5,284.4l9.6,10.2h-10.4l-9.6-10.2H305.5z
	 M170.5,198l9.5,10.1h-10.4l-9.5-10.1H170.5z M182.2,210.4l12.9,13.7h-10.4l-12.9-13.7H182.2z M234.5,266.1l15,16h-10.4l-15-16
	H234.5z M251.7,284.4l9.6,10.2h-10.4l-9.6-10.2H251.7z M116.7,198l9.5,10.1h-10.4l-9.5-10.1H116.7z M128.4,210.4l12.9,13.7h-10.4
	L118,210.4H128.4z M180.7,266.1l15,16h-10.4l-15-16H180.7z M198,284.4l9.6,10.2h-10.4l-9.6-10.2H198z M62.9,198l14.9,15.8v30.1
	l-43.2-46H62.9z M98.6,266.1h28.3l14.7,15.7v0.3v29.9L98.6,266.1z M285.1,148.3l3.3,3.5L298,162h-10.4l-9.6-10.2l-3.3-3.5H285.1z
	 M265.9,142.4l3.3,3.5l2.2,2.4l3.3,3.5l9.6,10.2l2.2,2.4l31.6,33.6l9.5,10.1l2.2,2.4l12.9,13.7l2.2,2.4l37.1,39.5l15,16l2.2,2.4
	l7.4,7.8h-31.3l-7.4-7.8l-2.2-2.4l-15-16l-37.1-39.5l-2.2-2.4l-12.9-13.7l-2.2-2.4l-9.5-10.1l-31.6-33.6L253,162l-9.6-10.2l-3.3-3.5
	l-2.2-2.4l-3.3-3.5H265.9z M231.3,148.3l3.3,3.5l9.6,10.2h-10.4l-9.6-10.2l-3.3-3.5H231.3z M212.1,142.4l3.3,3.5l2.2,2.4l3.3,3.5
	l9.6,10.2l2.2,2.4l31.6,33.6l9.5,10.1l2.2,2.4l12.9,13.7l2.2,2.4l37.1,39.5l15,16l2.2,2.4l7.4,7.8h-31.3l-7.4-7.8l-2.2-2.4l-15-16
	l-37.1-39.5l-2.2-2.4l-12.9-13.7l-2.2-2.4l-9.5-10.1l-31.6-33.6l-2.2-2.4l-9.6-10.2l-3.3-3.5l-2.2-2.4l-3.3-3.5H212.1z M177.5,148.3
	l3.3,3.5l9.6,10.2H180l-9.6-10.2l-3.3-3.5H177.5z M158.3,142.4l3.3,3.5l2.2,2.4l3.3,3.5l9.6,10.2l2.2,2.4l31.6,33.6l9.5,10.1
	l2.2,2.4l12.9,13.7l2.2,2.4l37.1,39.5l15,16l2.2,2.4l7.4,7.8h-31.3l-7.4-7.8l-2.2-2.4l-15-16l-37.1-39.5l-2.2-2.4L191,210.4
	l-2.2-2.4l-9.5-10.1l-31.6-33.6l-2.2-2.4l-9.6-10.2l-3.3-3.5l-2.2-2.4l-3.3-3.5H158.3z M123.8,148.3l3.3,3.5l9.6,10.2h-10.4
	l-9.6-10.2l-3.3-3.5H123.8z M104.5,142.4l3.3,3.5l2.2,2.4l3.3,3.5L123,162l2.2,2.4l31.6,33.6l9.5,10.1l2.2,2.4l12.9,13.7l2.2,2.4
	l37.1,39.5l15,16l2.2,2.4l7.4,7.8h-31.3l-7.4-7.8l-2.2-2.4l-15-16l-37.1-39.5l-2.2-2.4l-12.9-13.7l-2.2-2.4l-9.5-10.1l-31.6-33.6
	l-2.2-2.4l-9.6-10.2l-3.3-3.5l-2.2-2.4l-3.3-3.5H104.5z M70,148.3l3.3,3.5l9.6,10.2H72.4l-9.6-10.2l-3.3-3.5H70z M50.7,142.4
	l3.3,3.5l2.2,2.4l3.3,3.5l9.6,10.2l2.2,2.4L103,198l9.5,10.1l2.2,2.4l12.9,13.7l2.2,2.4l37.1,39.5l15,16l2.2,2.4l7.4,7.8h-31.3
	l-7.4-7.8l-2.2-2.4l-15-16l-37.1-39.5l-10.2-10.9l-4.9-5.2l-2.2-2.4L71.7,198l-31.6-33.6l-2.2-2.4l-9.6-10.2l-3.3-3.5l-2.2-2.4
	l-3.3-3.5H50.7z"/>
</svg>
