<?xml version="1.0" encoding="utf-8"?>
<!-- Generator: Adobe Illustrator 21.0.2, SVG Export Plug-In . SVG Version: 6.00 Build 0)  -->
<svg version="1.1" id="Livello_1" xmlns="http://www.w3.org/2000/svg" xmlns:xlink="http://www.w3.org/1999/xlink" x="0px" y="0px"
	 viewBox="0 0 480 480" style="enable-background:new 0 0 480 480;" xml:space="preserve">
<style type="text/css">
	.st0{fill:#263247;}
	.st1{fill-rule:evenodd;clip-rule:evenodd;fill:#263247;}
</style>
<g>
	<path class="st0" d="M318.9,168h-44l128.6,136.5h44L318.9,168z M396,292.4h7.6l-1.7-1.8h-7.6l-8.2-8.7h18.1l-3.4-3.6h-18.1
		l-8.8-9.3h7.6l-1.7-1.8h-7.6l-8.2-8.7h18.1l-3.4-3.6h-18.1l-8.8-9.3h7.6l-1.7-1.8h-7.6l-8.2-8.7h18.1l-3.4-3.6h-18.1l-8.8-9.3h7.6
		l-1.7-1.8h-7.6l-8.2-8.7h18.1l-3.4-3.6h-18.1l-8.8-9.3h7.6l-1.7-1.8h-7.6l-8.2-8.7h18.1l-3.4-3.6h-18.1l-8.8-9.3h7.6l-1.7-1.8h-7.6
		l-2.7-2.9h36.2l123.2,130.8h-36.2L396,292.4z"/>
	<path class="st0" d="M92.2,184L92.2,184l140.3-17.8l-43-45.8h-157v55l39.1,41.6L92.2,184L92.2,184L92.2,184z M39.1,123.3h149.2
		l38.4,40.8l-133.3,17L39.1,123.3z"/>
	<path class="st0" d="M129.1,223.1l176.9,21.2l-67.4-71.7L98.3,190.5l0.2,0.2l-0.2-0.2l-20.7,33l39.6,42.1L129.1,223.1
		C129,223.2,129,223.2,129.1,223.1z M104.2,192.6l133.3-17l61.1,65l-168.2-20.2L104.2,192.6z"/>
	<path class="st0" d="M135.9,230.5L135.9,230.5L124,272.8l81.5,86.7h157v-55l-49.7-52.8L135.9,230.5z M206.7,301.7l-63.4-67.5
		l168.2,20.2l44.5,47.3H206.7z"/>
</g>
</svg>
