<?xml version="1.0" encoding="utf-8"?>
<!-- Generator: Adobe Illustrator 21.0.2, SVG Export Plug-In . SVG Version: 6.00 Build 0)  -->
<svg version="1.1" id="Livello_1" xmlns="http://www.w3.org/2000/svg" xmlns:xlink="http://www.w3.org/1999/xlink" x="0px" y="0px"
	 viewBox="0 0 480 480" style="enable-background:new 0 0 480 480;" xml:space="preserve">
<style type="text/css">
	.st0{fill:#263247;}
	.st1{fill-rule:evenodd;clip-rule:evenodd;fill:#263247;}
</style>
<path class="st0" d="M271.5,144.6h-29.3l9.6-6l-46.4-4.8l16.9-20l-45.7,9.7l9.8-24.3L146,122.5l1.9-26.1l-31.2,34.7l-6.3-25.4
	l-19,42.7l-13.8-22.2l-4.8,46.4l-20-16.9l9.7,45.7l-24.3-9.8L61.6,232l-26.1-1.9l34.7,31.2l-25.4,6.3l42.7,19l-22.2,13.8l46.4,4.8
	l-16.9,20l45.7-9.7l-9.8,24.3l40.4-23.4l-1.9,26.1l31.2-34.7l6.3,25.4l9.5-21.3l-24.7-26.5l-0.8-0.8v-1.1v-3v-4v-48v-3v-4v-0.1v-0.1
	l0.2,0.2h73.1l-8.4-14.6l26.1,1.9l-34.7-31.2l25.4-6.3l-42.7-19l8-5h32.6l167.7,178.3H288.7l-95.2-101.2v4v48v7l4,4.3l0,0l19.9,21.3
	l0-0.1l70,74.5h157v-55L271.5,144.6z M174.6,220.6c-0.6,8.8-8.3,15.5-17.1,14.9c-8.8-0.6-15.5-8.3-14.9-17.1
	c0.6-8.8,8.3-15.5,17.1-14.9S175.2,211.8,174.6,220.6z M186.5,276.6v-0.4l0.4,0.4H186.5z"/>
</svg>
